<?xml version="1.0" standalone="no"?>
<svg
  width="600"
  height="600"
  viewBox="0 0 600 600"
  xmlns="http://www.w3.org/2000/svg"
>
  <g transform="translate(300,300)">
    <path d="M147.1,-202.5C181.3,-177.6,193.4,-122.2,201.1,-71.6C208.9,-21.1,212.4,24.5,200.3,66.1C188.2,107.7,160.5,145.3,124.5,168.9C88.6,192.6,44.3,202.3,6.1,193.9C-32.1,185.6,-64.3,159.1,-87.7,131.4C-111.2,103.7,-126,74.7,-152.5,38.7C-179.1,2.8,-217.5,-40.2,-209.1,-68.6C-200.7,-96.9,-145.6,-110.8,-103,-132.9C-60.3,-155.1,-30.2,-185.5,13.1,-203.6C56.4,-221.7,112.9,-227.3,147.1,-202.5Z" fill="#0b7bc5" />
  </g>
</svg>
  