<?xml version="1.0" encoding="UTF-8" standalone="no"?>
<svg
   xmlns:dc="http://purl.org/dc/elements/1.1/"
   xmlns:cc="http://creativecommons.org/ns#"
   xmlns:rdf="http://www.w3.org/1999/02/22-rdf-syntax-ns#"
   xmlns:svg="http://www.w3.org/2000/svg"
   xmlns="http://www.w3.org/2000/svg"
   viewBox="0 0 666.66669 666.66669"
   max-height="666.66669"
   max-width="666.66669"
   xml:space="preserve"
   id="svg2"
   version="1.1"><metadata
     id="metadata8"><rdf:RDF><cc:Work
         rdf:about=""><dc:format>image/svg+xml</dc:format><dc:type
           rdf:resource="http://purl.org/dc/dcmitype/StillImage" /></cc:Work></rdf:RDF></metadata><defs
     id="defs6"><clipPath
       id="clipPath32"
       clipPathUnits="userSpaceOnUse"><path
         id="path30"
         d="M 0,500 H 500 V 0 H 0 Z" /></clipPath><clipPath
       id="clipPath184"
       clipPathUnits="userSpaceOnUse"><path
         id="path182"
         d="M 0,500 H 500 V 0 H 0 Z" /></clipPath><clipPath
       id="clipPath196"
       clipPathUnits="userSpaceOnUse"><path
         id="path194"
         d="M 84.5498,384.25 H 407.256 V 162.418 H 84.5498 Z" /></clipPath><clipPath
       id="clipPath212"
       clipPathUnits="userSpaceOnUse"><path
         id="path210"
         d="M 0,500 H 500 V 0 H 0 Z" /></clipPath><clipPath
       id="clipPath224"
       clipPathUnits="userSpaceOnUse"><path
         id="path222"
         d="M 0,500 H 500 V 0 H 0 Z" /></clipPath><clipPath
       id="clipPath240"
       clipPathUnits="userSpaceOnUse"><path
         id="path238"
         d="m 167.625,194.314 h 34.683 v -10.551 h -34.683 z" /></clipPath><clipPath
       id="clipPath260"
       clipPathUnits="userSpaceOnUse"><path
         id="path258"
         d="m 197.365,183.763 h 39.284 V 85.0398 h -39.284 z" /></clipPath><clipPath
       id="clipPath276"
       clipPathUnits="userSpaceOnUse"><path
         id="path274"
         d="m 212.902,183.763 h 8.209 v -3.064 h -8.209 z" /></clipPath><clipPath
       id="clipPath298"
       clipPathUnits="userSpaceOnUse"><path
         id="path296"
         d="m 272.582,118.834 h 9.995 v -12.321 h -9.995 z" /></clipPath><clipPath
       id="clipPath318"
       clipPathUnits="userSpaceOnUse"><path
         id="path316"
         d="m 240.98,216.287 h 21.545 V 178.801 H 240.98 Z" /></clipPath><clipPath
       id="clipPath362"
       clipPathUnits="userSpaceOnUse"><path
         id="path360"
         d="M 236.585,116 H 246.59 V 102.838 H 236.585 Z" /></clipPath><clipPath
       id="clipPath394"
       clipPathUnits="userSpaceOnUse"><path
         id="path392"
         d="m 204.425,277.63 h 15.416 v -20.965 h -15.416 z" /></clipPath><clipPath
       id="clipPath422"
       clipPathUnits="userSpaceOnUse"><path
         id="path420"
         d="m 165.192,289.445 h 20.684 v -46.582 h -20.684 z" /></clipPath><clipPath
       id="clipPath442"
       clipPathUnits="userSpaceOnUse"><path
         id="path440"
         d="m 204.383,310.636 h 5.737 v -10.959 h -5.737 z" /></clipPath><clipPath
       id="clipPath490"
       clipPathUnits="userSpaceOnUse"><path
         id="path488"
         d="m 196.162,343.036 h 30.564 V 327.1 h -30.564 z" /></clipPath><clipPath
       id="clipPath560"
       clipPathUnits="userSpaceOnUse"><path
         id="path558"
         d="M 0,500 H 500 V 0 H 0 Z" /></clipPath><clipPath
       id="clipPath568"
       clipPathUnits="userSpaceOnUse"><path
         id="path566"
         d="m 148.666,225.32 h 207.623 v -6.759 H 148.666 Z" /></clipPath><clipPath
       id="clipPath582"
       clipPathUnits="userSpaceOnUse"><path
         id="path580"
         d="m 148.666,225.32 h 41.426 v -6.759 h -41.426 z" /></clipPath><clipPath
       id="clipPath604"
       clipPathUnits="userSpaceOnUse"><path
         id="path602"
         d="m 233.248,273.334 h 12.9 v -44.206 h -12.9 z" /></clipPath><clipPath
       id="clipPath620"
       clipPathUnits="userSpaceOnUse"><path
         id="path618"
         d="m 199.986,227.564 h 33.037 v -2.244 h -33.037 z" /></clipPath><clipPath
       id="clipPath648"
       clipPathUnits="userSpaceOnUse"><path
         id="path646"
         d="M 0,500 H 500 V 0 H 0 Z" /></clipPath><clipPath
       id="clipPath656"
       clipPathUnits="userSpaceOnUse"><path
         id="path654"
         d="m 265.294,330.158 h 63.262 v -49.1 h -63.262 z" /></clipPath><clipPath
       id="clipPath748"
       clipPathUnits="userSpaceOnUse"><path
         id="path746"
         d="M 0,500 H 500 V 0 H 0 Z" /></clipPath></defs><g
     transform="matrix(1.3333333,0,0,-1.3333333,0,666.66667)"
     id="g10"><path
       id="path12"
       style="fill:#ececec;fill-opacity:1;fill-rule:nonzero;stroke:none"
       d="m 0,117.352 h 500 v 0.249 H 0 Z" /><path
       id="path14"
       style="fill:#ececec;fill-opacity:1;fill-rule:nonzero;stroke:none"
       d="m 332.111,110.542 h 97.597 v 0.25 h -97.597 z" /><path
       id="path16"
       style="fill:#ececec;fill-opacity:1;fill-rule:nonzero;stroke:none"
       d="m 289,104.764 h 46.667 v 0.249 H 289 Z" /><path
       id="path18"
       style="fill:#ececec;fill-opacity:1;fill-rule:nonzero;stroke:none"
       d="m 430.708,101.255 h 19.193 v 0.25 h -19.193 z" /><path
       id="path20"
       style="fill:#ececec;fill-opacity:1;fill-rule:nonzero;stroke:none"
       d="m 126.473,104.639 h 92.526 v 0.25 h -92.526 z" /><path
       id="path22"
       style="fill:#ececec;fill-opacity:1;fill-rule:nonzero;stroke:none"
       d="m 97.667,104.639 h 19.903 v 0.25 H 97.667 Z" /><path
       id="path24"
       style="fill:#ececec;fill-opacity:1;fill-rule:nonzero;stroke:none"
       d="m 57.793,108.861 h 32.862 v 0.25 H 57.793 Z" /><g
       id="g26"><g
         clip-path="url(#clipPath32)"
         id="g28"><g
           transform="translate(43.915,444.7974)"
           id="g34"><path
             id="path36"
             style="fill:#ececec;fill-opacity:1;fill-rule:nonzero;stroke:none"
             d="m 0,0 c -3.01,0 -5.458,-2.448 -5.458,-5.458 v -271.431 c 0,-3.01 2.448,-5.458 5.458,-5.458 h 193.099 c 3.008,0 5.457,2.448 5.457,5.458 V -5.458 c 0,3.01 -2.449,5.458 -5.457,5.458 z M 193.099,-282.597 H 0 c -3.147,0 -5.708,2.56 -5.708,5.708 V -5.458 c 0,3.147 2.561,5.708 5.708,5.708 h 193.099 c 3.146,0 5.707,-2.561 5.707,-5.708 v -271.431 c 0,-3.148 -2.561,-5.708 -5.707,-5.708" /></g><g
           transform="translate(260.2119,444.7974)"
           id="g38"><path
             id="path40"
             style="fill:#ececec;fill-opacity:1;fill-rule:nonzero;stroke:none"
             d="m 0,0 c -3.009,0 -5.457,-2.448 -5.457,-5.458 v -271.431 c 0,-3.01 2.448,-5.458 5.457,-5.458 h 193.099 c 3.009,0 5.458,2.448 5.458,5.458 V -5.458 c 0,3.01 -2.449,5.458 -5.458,5.458 z M 193.099,-282.597 H 0 c -3.147,0 -5.707,2.56 -5.707,5.708 V -5.458 c 0,3.147 2.56,5.708 5.707,5.708 h 193.099 c 3.147,0 5.708,-2.561 5.708,-5.708 v -271.431 c 0,-3.148 -2.561,-5.708 -5.708,-5.708" /></g><path
           id="path42"
           style="fill:#ececec;fill-opacity:1;fill-rule:nonzero;stroke:none"
           d="M 93.653,239.283 H 79.875 V 117.601 h 13.778 z" /><path
           id="path44"
           style="fill:#f5f5f5;fill-opacity:1;fill-rule:nonzero;stroke:none"
           d="M 93.653,239.283 H 226.271 V 117.601 H 93.653 Z" /><path
           id="path46"
           style="fill:#ececec;fill-opacity:1;fill-rule:nonzero;stroke:none"
           d="m 98.542,234.564 h 122.84 V 122.321 H 98.542 Z" /><path
           id="path48"
           style="fill:#f5f5f5;fill-opacity:1;fill-rule:nonzero;stroke:none"
           d="m 100.542,232.342 h 118.84 v -12.296 h -118.84 z" /><path
           id="path50"
           style="fill:#f5f5f5;fill-opacity:1;fill-rule:nonzero;stroke:none"
           d="m 100.542,218.546 h 118.84 V 184.99 h -118.84 z" /><path
           id="path52"
           style="fill:#f5f5f5;fill-opacity:1;fill-rule:nonzero;stroke:none"
           d="m 100.542,183.49 h 118.84 v -59.222 h -118.84 z" /><g
           transform="translate(194.5259,178.7388)"
           id="g54"><path
             id="path56"
             style="fill:#fafafa;fill-opacity:1;fill-rule:nonzero;stroke:none"
             d="m 0,0 h -69.128 c -0.55,0 -1,0.45 -1,1 0,0.55 0.45,1 1,1 H 0 C 0.55,2 1,1.55 1,1 1,0.45 0.55,0 0,0" /></g><g
           transform="translate(194.5259,213.7114)"
           id="g58"><path
             id="path60"
             style="fill:#fafafa;fill-opacity:1;fill-rule:nonzero;stroke:none"
             d="m 0,0 h -69.128 c -0.55,0 -1,0.45 -1,1 0,0.55 0.45,1 1,1 H 0 C 0.55,2 1,1.55 1,1 1,0.45 0.55,0 0,0" /></g><g
           transform="translate(194.5259,227.5073)"
           id="g62"><path
             id="path64"
             style="fill:#fafafa;fill-opacity:1;fill-rule:nonzero;stroke:none"
             d="m 0,0 h -69.128 c -0.55,0 -1,0.45 -1,1 0,0.55 0.45,1 1,1 H 0 C 0.55,2 1,1.55 1,1 1,0.45 0.55,0 0,0" /></g><path
           id="path66"
           style="fill:#f0f0f0;fill-opacity:1;fill-rule:nonzero;stroke:none"
           d="m 72.895,271.667 h 167.4 v 54.011 h -167.4 z" /><path
           id="path68"
           style="fill:#e7e7e7;fill-opacity:1;fill-rule:nonzero;stroke:none"
           d="M 235.571,320.954 H 77.618 v -44.563 h 157.953 z" /><path
           id="path70"
           style="fill:#e1e1e1;fill-opacity:1;fill-rule:nonzero;stroke:none"
           d="m 235.571,320.954 h -22.693 v -44.563 h 22.693 z" /><path
           id="path72"
           style="fill:#e7e7e7;fill-opacity:1;fill-rule:nonzero;stroke:none"
           d="M 72.895,325.678 H 61.137 v -54.011 h 11.758 z" /><path
           id="path74"
           style="fill:#f0f0f0;fill-opacity:1;fill-rule:nonzero;stroke:none"
           d="m 206.822,276.391 h 9.868 v 40.972 h -9.868 z" /><path
           id="path76"
           style="fill:#e1e1e1;fill-opacity:1;fill-rule:nonzero;stroke:none"
           d="m 206.822,276.391 h -26.379 v 40.972 h 26.379 z" /><path
           id="path78"
           style="fill:#fafafa;fill-opacity:1;fill-rule:nonzero;stroke:none"
           d="m 198.061,276.391 h 5.559 v 36.285 h -5.559 z" /><path
           id="path80"
           style="fill:#ececec;fill-opacity:1;fill-rule:nonzero;stroke:none"
           d="M 198.061,276.391 H 183.2 v 36.285 h 14.861 z" /><g
           transform="translate(181.147,276.3906)"
           id="g82"><path
             id="path84"
             style="fill:#fafafa;fill-opacity:1;fill-rule:nonzero;stroke:none"
             d="m 0,0 h 8.235 l 4.747,34.193 H 4.747 Z" /></g><g
           transform="translate(181.147,276.3906)"
           id="g86"><path
             id="path88"
             style="fill:#ececec;fill-opacity:1;fill-rule:nonzero;stroke:none"
             d="m 0,0 h -22.015 l 4.747,34.193 H 4.747 Z" /></g><path
           id="path90"
           style="fill:#e7e7e7;fill-opacity:1;fill-rule:nonzero;stroke:none"
           d="m 173.559,286.259 h -40.972 v -9.868 h 40.972 z" /><path
           id="path92"
           style="fill:#e1e1e1;fill-opacity:1;fill-rule:nonzero;stroke:none"
           d="m 117.456,286.259 h 15.131 v -9.868 h -15.131 z" /><path
           id="path94"
           style="fill:#f0f0f0;fill-opacity:1;fill-rule:nonzero;stroke:none"
           d="m 117.456,285.134 h 13.805 v -7.62 h -13.805 z" /><path
           id="path96"
           style="fill:#f0f0f0;fill-opacity:1;fill-rule:nonzero;stroke:none"
           d="m 171.04,293.953 h -40.972 v -7.694 h 40.972 z" /><path
           id="path98"
           style="fill:#e7e7e7;fill-opacity:1;fill-rule:nonzero;stroke:none"
           d="m 114.936,293.953 h 15.131 v -7.694 h -15.131 z" /><path
           id="path100"
           style="fill:#f0f0f0;fill-opacity:1;fill-rule:nonzero;stroke:none"
           d="m 114.936,293.076 h 13.805 v -5.941 h -13.805 z" /><path
           id="path102"
           style="fill:#f0f0f0;fill-opacity:1;fill-rule:nonzero;stroke:none"
           d="m 104.844,276.391 h 7.995 v 33.196 h -7.995 z" /><path
           id="path104"
           style="fill:#e1e1e1;fill-opacity:1;fill-rule:nonzero;stroke:none"
           d="M 104.844,276.391 H 83.472 v 33.196 h 21.372 z" /><path
           id="path106"
           style="fill:#fafafa;fill-opacity:1;fill-rule:nonzero;stroke:none"
           d="m 87.167,276.391 h 7.676 v 29.398 h -7.676 z" /><path
           id="path108"
           style="fill:#ececec;fill-opacity:1;fill-rule:nonzero;stroke:none"
           d="m 87.167,276.391 h -9.548 v 29.398 h 9.548 z" /><path
           id="path110"
           style="fill:#f0f0f0;fill-opacity:1;fill-rule:nonzero;stroke:none"
           d="m 72.895,339.733 h 167.4 v 54.011 h -167.4 z" /><path
           id="path112"
           style="fill:#e7e7e7;fill-opacity:1;fill-rule:nonzero;stroke:none"
           d="M 235.571,389.02 H 77.618 v -44.563 h 157.953 z" /><path
           id="path114"
           style="fill:#e1e1e1;fill-opacity:1;fill-rule:nonzero;stroke:none"
           d="m 235.571,389.02 h -22.693 v -44.563 h 22.693 z" /><path
           id="path116"
           style="fill:#e7e7e7;fill-opacity:1;fill-rule:nonzero;stroke:none"
           d="M 72.895,393.744 H 61.137 v -54.011 h 11.758 z" /><path
           id="path118"
           style="fill:#f0f0f0;fill-opacity:1;fill-rule:nonzero;stroke:none"
           d="m 155.483,344.457 h 8.588 v 26.048 h -8.588 z" /><path
           id="path120"
           style="fill:#e1e1e1;fill-opacity:1;fill-rule:nonzero;stroke:none"
           d="m 155.483,344.457 h -12.746 v 26.048 h 12.746 z" /><path
           id="path122"
           style="fill:#fafafa;fill-opacity:1;fill-rule:nonzero;stroke:none"
           d="m 146.054,344.457 h 4.838 v 31.58 h -4.838 z" /><path
           id="path124"
           style="fill:#ececec;fill-opacity:1;fill-rule:nonzero;stroke:none"
           d="M 146.054,344.457 H 133.12 v 31.58 h 12.934 z" /><g
           transform="translate(217.3622,344.457)"
           id="g126"><path
             id="path128"
             style="fill:#f0f0f0;fill-opacity:1;fill-rule:nonzero;stroke:none"
             d="m 0,0 h 7.167 l 4.132,29.76 H 4.131 Z" /></g><g
           transform="translate(217.3622,344.457)"
           id="g130"><path
             id="path132"
             style="fill:#e1e1e1;fill-opacity:1;fill-rule:nonzero;stroke:none"
             d="m 0,0 h -19.16 l 4.131,29.76 h 19.16 z" /></g><path
           id="path134"
           style="fill:#f5f5f5;fill-opacity:1;fill-rule:nonzero;stroke:none"
           d="M 136.318,353.707 H 97.911 v -9.25 h 38.407 z" /><path
           id="path136"
           style="fill:#e1e1e1;fill-opacity:1;fill-rule:nonzero;stroke:none"
           d="m 83.727,353.707 h 14.184 v -9.25 H 83.727 Z" /><path
           id="path138"
           style="fill:#f0f0f0;fill-opacity:1;fill-rule:nonzero;stroke:none"
           d="m 83.727,352.653 h 12.94 v -7.143 h -12.94 z" /><path
           id="path140"
           style="fill:#fafafa;fill-opacity:1;fill-rule:nonzero;stroke:none"
           d="M 130.979,368.398 H 99.926 v -7.479 h 31.053 z" /><path
           id="path142"
           style="fill:#e1e1e1;fill-opacity:1;fill-rule:nonzero;stroke:none"
           d="m 88.458,368.398 h 11.468 v -7.479 H 88.458 Z" /><path
           id="path144"
           style="fill:#f5f5f5;fill-opacity:1;fill-rule:nonzero;stroke:none"
           d="m 88.458,367.546 h 10.463 v -5.775 H 88.458 Z" /><path
           id="path146"
           style="fill:#fafafa;fill-opacity:1;fill-rule:nonzero;stroke:none"
           d="m 211.601,351.97 h -31.053 v -7.479 h 31.053 z" /><path
           id="path148"
           style="fill:#e1e1e1;fill-opacity:1;fill-rule:nonzero;stroke:none"
           d="m 169.079,351.97 h 11.468 v -7.479 h -11.468 z" /><path
           id="path150"
           style="fill:#f5f5f5;fill-opacity:1;fill-rule:nonzero;stroke:none"
           d="m 169.079,351.118 h 10.463 v -5.775 h -10.463 z" /><path
           id="path152"
           style="fill:#f0f0f0;fill-opacity:1;fill-rule:nonzero;stroke:none"
           d="M 133.957,360.919 H 95.55 v -7.212 h 38.407 z" /><path
           id="path154"
           style="fill:#e7e7e7;fill-opacity:1;fill-rule:nonzero;stroke:none"
           d="M 81.366,360.919 H 95.55 v -7.212 H 81.366 Z" /><path
           id="path156"
           style="fill:#f0f0f0;fill-opacity:1;fill-rule:nonzero;stroke:none"
           d="m 81.366,360.098 h 12.94 v -5.569 h -12.94 z" /><g
           transform="translate(306.5445,381.8887)"
           id="g158"><path
             id="path160"
             style="fill:#f5f5f5;fill-opacity:1;fill-rule:nonzero;stroke:none"
             d="m 0,0 h 117.362 l 5.033,-264.287 H 5.032 Z" /></g><g
           transform="translate(424.5634,137.3037)"
           id="g162"><path
             id="path164"
             style="fill:#f0f0f0;fill-opacity:1;fill-rule:nonzero;stroke:none"
             d="m 0,0 -4.294,225.47 c -0.16,8.394 -7.01,15.115 -15.406,15.115 h -78.537 c -8.625,0 -15.57,-7.079 -15.406,-15.702 l 4.293,-225.47 c 0.16,-8.394 7.01,-15.115 15.406,-15.115 h 78.538 C -6.781,-15.702 0.164,-8.624 0,0" /></g><g
           transform="translate(306.5445,381.8887)"
           id="g166"><path
             id="path168"
             style="fill:#e7e7e7;fill-opacity:1;fill-rule:nonzero;stroke:none"
             d="M 0,0 H -2.246 L 2.786,-264.287 H 5.032 Z" /></g><g
           transform="translate(369.2271,377.8887)"
           id="g170"><path
             id="path172"
             style="fill:#fafafa;fill-opacity:1;fill-rule:nonzero;stroke:none"
             d="M 0,0 H 17.667 L 32.168,-256.287 H 14.501 Z" /></g><g
           transform="translate(355.3466,377.8887)"
           id="g174"><path
             id="path176"
             style="fill:#fafafa;fill-opacity:1;fill-rule:nonzero;stroke:none"
             d="M 0,0 H 8.833 L 23.334,-256.287 H 14.501 Z" /></g></g></g><g
       id="g178"><g
         clip-path="url(#clipPath184)"
         id="g180"><g
           transform="translate(273.4761,320.2793)"
           id="g186"><path
             id="path188"
             style="fill:#007cff;fill-opacity:1;fill-rule:nonzero;stroke:none"
             d="m 0,0 c -48.284,31.865 -130.009,107.291 -176.619,30.795 -46.268,-75.934 48.618,-159.444 107.523,-179.88 59.549,-20.659 217.902,-9.183 201.722,81.658 C 121.493,-4.925 53.333,-35.197 0,0" /></g><g
           id="g190"><g
             id="g192" /><g
             id="g204"><g
               style="opacity:0.89999402"
               id="g202"
               clip-path="url(#clipPath196)"><g
                 id="g200"
                 transform="translate(273.4761,320.2793)"><path
                   id="path198"
                   style="fill:#ffffff;fill-opacity:1;fill-rule:nonzero;stroke:none"
                   d="m 0,0 c -48.284,31.865 -130.009,107.291 -176.619,30.795 -46.268,-75.934 48.618,-159.444 107.523,-179.88 59.549,-20.659 217.902,-9.183 201.722,81.658 C 121.493,-4.925 53.333,-35.197 0,0" /></g></g></g></g></g></g><g
       id="g206"><g
         clip-path="url(#clipPath212)"
         id="g208"><g
           transform="translate(443.8894,83.7622)"
           id="g214"><path
             id="path216"
             style="fill:#f5f5f5;fill-opacity:1;fill-rule:nonzero;stroke:none"
             d="m 0,0 c 0,-6.254 -86.807,-11.324 -193.889,-11.324 -107.082,0 -193.889,5.07 -193.889,11.324 0,6.253 86.807,11.323 193.889,11.323 C -86.807,11.323 0,6.253 0,0" /></g></g></g><g
       id="g218"><g
         clip-path="url(#clipPath224)"
         id="g220"><g
           transform="translate(182.3087,183.7632)"
           id="g226"><path
             id="path228"
             style="fill:#007cff;fill-opacity:1;fill-rule:nonzero;stroke:none"
             d="M 0,0 H 86.193 C 83.189,6.539 77.723,10.55 71.817,10.55 H 4.846 Z" /></g><g
           transform="translate(167.7854,183.7632)"
           id="g230"><path
             id="path232"
             style="fill:#007cff;fill-opacity:1;fill-rule:nonzero;stroke:none"
             d="M 0,0 H 34.522 C 31.519,6.539 26.052,10.55 20.146,10.55 H 7.929 C 2.022,10.55 -0.902,7.138 0,0" /></g><g
           id="g234"><g
             id="g236" /><g
             id="g248"><g
               style="opacity:0.5"
               id="g246"
               clip-path="url(#clipPath240)"><g
                 id="g244"
                 transform="translate(167.7854,183.7632)"><path
                   id="path242"
                   style="fill:#1a2e35;fill-opacity:1;fill-rule:nonzero;stroke:none"
                   d="M 0,0 H 34.522 C 31.519,6.539 26.052,10.55 20.146,10.55 H 7.929 C 2.022,10.55 -0.902,7.138 0,0" /></g></g></g></g><g
           transform="translate(228.592,92.4956)"
           id="g250"><path
             id="path252"
             style="fill:#007cff;fill-opacity:1;fill-rule:nonzero;stroke:none"
             d="M 0,0 H -7.481 V 91.268 H -15.69 V 0 h -7.481 l -8.057,-7.456 h 15.538 8.209 15.538 z" /></g><g
           id="g254"><g
             id="g256" /><g
             id="g268"><g
               style="opacity:0.69999701"
               id="g266"
               clip-path="url(#clipPath260)"><g
                 id="g264"
                 transform="translate(228.592,92.4956)"><path
                   id="path262"
                   style="fill:#ffffff;fill-opacity:1;fill-rule:nonzero;stroke:none"
                   d="M 0,0 H -7.481 V 91.268 H -15.69 V 0 h -7.481 l -8.057,-7.456 h 15.538 8.209 15.538 z" /></g></g></g></g><g
           id="g270"><g
             id="g272" /><g
             id="g282"><g
               style="opacity:0.5"
               id="g280"
               clip-path="url(#clipPath276)"><path
                 id="path278"
                 style="fill:#007cff;fill-opacity:1;fill-rule:nonzero;stroke:none"
                 d="m 221.111,180.699 h -8.21 v 3.064 h 8.21 z" /></g></g></g><g
           transform="translate(274.7139,95.0527)"
           id="g284"><path
             id="path286"
             style="fill:#ce5b51;fill-opacity:1;fill-rule:nonzero;stroke:none"
             d="M 0,0 8.969,2.269 6.839,23.787 -2.13,21.518 Z" /></g><g
           transform="translate(284.0661,101.2856)"
           id="g288"><path
             id="path290"
             style="fill:#1a2e35;fill-opacity:1;fill-rule:nonzero;stroke:none"
             d="m 0,0 -10.299,-1.328 c -0.374,-0.049 -0.623,-0.345 -0.599,-0.714 l 0.552,-8.212 c 0.057,-0.852 0.954,-1.55 1.815,-1.424 3.577,0.525 5.052,0.913 9.528,1.821 2.753,0.558 9.33,1.925 13.005,3.167 3.595,1.215 2.343,4.843 0.674,4.644 C 10.725,-2.518 4.502,-2.059 1.651,-0.36 1.137,-0.054 0.548,0.07 0,0" /></g><g
           id="g292"><g
             id="g294" /><g
             id="g306"><g
               style="opacity:0.19999701"
               id="g304"
               clip-path="url(#clipPath298)"><g
                 id="g302"
                 transform="translate(272.5821,116.5635)"><path
                   id="path300"
                   style="fill:#000000;fill-opacity:1;fill-rule:nonzero;stroke:none"
                   d="M 0,0 8.973,2.271 9.995,-8.092 0.991,-10.051 Z" /></g></g></g></g><g
           transform="translate(213.9579,224.457)"
           id="g308"><path
             id="path310"
             style="fill:#1a2e35;fill-opacity:1;fill-rule:nonzero;stroke:none"
             d="m 0,0 c 0,0 66.474,2.229 66.691,-24.275 0.312,-38.096 4.455,-85.385 4.455,-85.385 l -16.747,-2.477 c 0,0 -11.354,45.394 -11.142,75.131 -18.696,5.278 -67.238,1.839 -72.953,17.333 C -34.371,-6.998 -31.929,0 -31.929,0 Z" /></g><g
           id="g312"><g
             id="g314" /><g
             id="g326"><g
               style="opacity:0.30000299"
               id="g324"
               clip-path="url(#clipPath318)"><g
                 id="g322"
                 transform="translate(241.254,216.2871)"><path
                   id="path320"
                   style="fill:#000000;fill-opacity:1;fill-rule:nonzero;stroke:none"
                   d="m 0,0 c 0,0 -2.018,-15.158 4.902,-26.845 4.263,-0.511 8.049,-1.137 11.062,-1.989 -0.023,-2.763 0.148,-5.662 0.466,-8.652 C 27.549,-20.911 18.445,-2.084 0,0" /></g></g></g></g><g
           transform="translate(267.103,107.9185)"
           id="g328"><path
             id="path330"
             style="fill:#007cff;fill-opacity:1;fill-rule:nonzero;stroke:none"
             d="M 0,0 19.389,3.656 19.707,11.167 -1.809,7.385 Z" /></g><g
           transform="translate(285.5837,100.5059)"
           id="g332"><path
             id="path334"
             style="fill:#007cff;fill-opacity:1;fill-rule:nonzero;stroke:none"
             d="M 0,0 C 1.682,-0.115 2.883,0.091 3.256,0.572 3.411,0.771 3.428,1.027 3.309,1.355 3.254,1.506 3.167,1.592 3.034,1.625 2.401,1.783 0.976,0.814 0,0 m 1.937,-0.398 c -0.846,-0.109 -1.805,-0.056 -2.484,0.013 -0.085,0.008 -0.157,0.065 -0.183,0.146 -0.027,0.081 -0.003,0.17 0.059,0.227 0.267,0.241 2.633,2.349 3.809,2.054 C 3.411,1.975 3.61,1.788 3.714,1.501 3.885,1.03 3.845,0.628 3.596,0.308 3.278,-0.1 2.648,-0.307 1.937,-0.398" /></g><g
           transform="translate(285.8587,103.9985)"
           id="g336"><path
             id="path338"
             style="fill:#007cff;fill-opacity:1;fill-rule:nonzero;stroke:none"
             d="M 0,0 C -0.177,-0.023 -0.32,-0.104 -0.435,-0.247 -0.919,-0.85 -0.799,-2.37 -0.661,-3.237 0.049,-2.461 0.771,-0.89 0.548,-0.252 0.506,-0.13 0.416,0.009 0.1,0.006 0.065,0.006 0.032,0.004 0,0 m -0.773,-3.877 c -0.034,-0.005 -0.069,-0.001 -0.101,0.011 -0.07,0.025 -0.122,0.084 -0.137,0.157 -0.024,0.11 -0.57,2.72 0.24,3.731 0.219,0.272 0.511,0.411 0.867,0.415 C 0.525,0.44 0.83,0.246 0.954,-0.11 1.295,-1.083 0.175,-3.172 -0.668,-3.833 -0.699,-3.858 -0.735,-3.873 -0.773,-3.877" /></g><g
           transform="translate(235.9189,93.0732)"
           id="g340"><path
             id="path342"
             style="fill:#ce5b51;fill-opacity:1;fill-rule:nonzero;stroke:none"
             d="M 0,0 9.169,1.165 10.67,22.932 1.501,21.767 Z" /></g><g
           transform="translate(245.298,95.5005)"
           id="g344"><path
             id="path346"
             style="fill:#1a2e35;fill-opacity:1;fill-rule:nonzero;stroke:none"
             d="m 0,0 -10.379,0.329 c -0.377,0.011 -0.67,-0.242 -0.704,-0.61 l -0.763,-8.195 c -0.08,-0.85 0.694,-1.682 1.565,-1.694 3.615,-0.052 5.348,0.106 9.912,-0.039 2.808,-0.088 8.332,-0.506 12.181,-0.021 3.765,0.474 3.26,4.278 1.585,4.416 C 9.432,-5.489 4.117,-2.749 1.573,-0.618 1.114,-0.234 0.552,-0.017 0,0" /></g><g
           transform="translate(246.6722,94.4893)"
           id="g348"><path
             id="path350"
             style="fill:#007cff;fill-opacity:1;fill-rule:nonzero;stroke:none"
             d="M 0,0 C 1.642,-0.381 2.861,-0.369 3.306,0.047 3.49,0.219 3.548,0.468 3.483,0.811 3.452,0.969 3.38,1.067 3.254,1.121 2.655,1.378 1.093,0.648 0,0 m 1.849,-0.702 c -0.853,0.028 -1.791,0.233 -2.451,0.409 -0.082,0.021 -0.144,0.089 -0.157,0.173 -0.013,0.085 0.024,0.168 0.095,0.215 0.302,0.196 2.973,1.901 4.087,1.422 C 3.682,1.406 3.848,1.19 3.905,0.891 3.999,0.398 3.896,0.008 3.599,-0.269 3.22,-0.621 2.565,-0.724 1.849,-0.702" /></g><g
           transform="translate(247.4997,97.8936)"
           id="g352"><path
             id="path354"
             style="fill:#007cff;fill-opacity:1;fill-rule:nonzero;stroke:none"
             d="m 0,0 c -0.179,0.005 -0.333,-0.052 -0.468,-0.175 -0.574,-0.517 -0.698,-2.037 -0.7,-2.915 0.825,0.653 1.788,2.089 1.669,2.754 C 0.479,-0.209 0.412,-0.057 0.1,-0.009 0.066,-0.004 0.032,-0.001 0,0 m -1.381,-3.705 c -0.033,10e-4 -0.067,0.011 -0.098,0.027 -0.064,0.036 -0.106,0.103 -0.11,0.178 -0.005,0.112 -0.129,2.776 0.832,3.645 0.259,0.233 0.569,0.324 0.922,0.271 C 0.589,0.352 0.859,0.111 0.925,-0.26 1.106,-1.274 -0.333,-3.159 -1.27,-3.678 -1.305,-3.697 -1.343,-3.706 -1.381,-3.705" /></g><g
           id="g356"><g
             id="g358" /><g
             id="g370"><g
               style="opacity:0.19999701"
               id="g368"
               clip-path="url(#clipPath362)"><g
                 id="g366"
                 transform="translate(237.4176,114.834)"><path
                   id="path364"
                   style="fill:#000000;fill-opacity:1;fill-rule:nonzero;stroke:none"
                   d="M 0,0 9.173,1.166 8.309,-11.282 -0.832,-11.996 Z" /></g></g></g></g><g
           transform="translate(191.3932,224.457)"
           id="g372"><path
             id="path374"
             style="fill:#1a2e35;fill-opacity:1;fill-rule:nonzero;stroke:none"
             d="m 0,0 c 0,0 66.372,-6.275 63.955,-26.253 -3.486,-28.815 -5.211,-90.916 -5.211,-90.916 l -16.915,-0.664 c 0,0 -7.169,56.012 -3.46,85.518 -17.176,0 -59.224,-1.236 -63.058,9.113 C -28.077,-14.059 -26.868,0 -26.868,0 Z" /></g><g
           transform="translate(231.3541,105.582)"
           id="g376"><path
             id="path378"
             style="fill:#007cff;fill-opacity:1;fill-rule:nonzero;stroke:none"
             d="M 0,0 20.302,1.006 21.031,9.842 -1.232,8.305 Z" /></g><g
           transform="translate(220.0847,284.1685)"
           id="g380"><path
             id="path382"
             style="fill:#ce5b51;fill-opacity:1;fill-rule:nonzero;stroke:none"
             d="m 0,0 0.565,-4.597 c 0.2,-1.56 0.421,-3.121 0.662,-4.675 0.5,-3.106 0.992,-6.206 1.624,-9.245 0.594,-3.045 1.31,-6.036 2.134,-8.901 0.815,-2.853 1.82,-5.611 2.974,-7.847 0.568,-1.106 1.199,-2.065 1.727,-2.663 0.097,-0.12 0.31,-0.324 0.517,-0.525 0.189,-0.201 0.428,-0.395 0.655,-0.594 0.46,-0.393 0.967,-0.789 1.506,-1.182 2.165,-1.565 4.795,-2.971 7.537,-4.266 5.499,-2.573 11.612,-4.716 17.578,-6.695 l -1.085,-6.855 c -3.507,0.117 -6.821,0.477 -10.214,1.022 -1.689,0.264 -3.374,0.586 -5.059,0.968 -1.687,0.373 -3.376,0.798 -5.06,1.309 -3.38,0.999 -6.755,2.279 -10.158,4.158 -0.852,0.466 -1.702,0.99 -2.545,1.584 -0.422,0.299 -0.844,0.588 -1.264,0.933 -0.417,0.329 -0.83,0.651 -1.312,1.111 -1.798,1.71 -3.042,3.468 -4.113,5.189 -2.098,3.45 -3.433,6.847 -4.624,10.214 -1.167,3.369 -2.056,6.729 -2.853,10.077 -0.755,3.356 -1.422,6.699 -1.92,10.061 -0.257,1.678 -0.491,3.358 -0.703,5.043 -0.223,1.705 -0.379,3.331 -0.526,5.157 z" /></g><g
           transform="translate(206.0649,290.8472)"
           id="g384"><path
             id="path386"
             style="fill:#007cff;fill-opacity:1;fill-rule:nonzero;stroke:none"
             d="m 0,0 c 6.786,6.557 15.15,2.686 18.486,-9.593 3.337,-12.279 3.857,-20.14 3.857,-20.14 L 0.855,-34.178 C -3.051,-22.457 -6.949,-6.715 0,0" /></g><g
           id="g388"><g
             id="g390" /><g
             id="g402"><g
               style="opacity:0.30000299"
               id="g400"
               clip-path="url(#clipPath394)"><g
                 id="g398"
                 transform="translate(212.9854,277.4351)"><path
                   id="path396"
                   style="fill:#000000;fill-opacity:1;fill-rule:nonzero;stroke:none"
                   d="m 0,0 c -1.535,1.387 -5.9,-4.809 -8.561,-12.472 0.751,-2.864 1.615,-5.684 2.49,-8.299 l 12.926,2.672 C 5.821,-10.459 3.445,-3.104 0,0" /></g></g></g></g><g
           transform="translate(256.2448,234.7485)"
           id="g404"><path
             id="path406"
             style="fill:#ce5b51;fill-opacity:1;fill-rule:nonzero;stroke:none"
             d="m 0,0 5.114,-0.324 -4.085,-9.39 c 0,0 -8.831,0.201 -8.649,4.549 l 1.595,2.077 C -4.657,-1.306 -2.432,-0.166 0,0" /></g><g
           transform="translate(266.937,233.6714)"
           id="g408"><path
             id="path410"
             style="fill:#ce5b51;fill-opacity:1;fill-rule:nonzero;stroke:none"
             d="m 0,0 -4.412,-8.637 h -5.251 l 4.085,9.39 z" /></g><g
           transform="translate(206.8618,297.4229)"
           id="g412"><path
             id="path414"
             style="fill:#007cff;fill-opacity:1;fill-rule:nonzero;stroke:none"
             d="m 0,0 -10.299,2.938 -13.246,0.625 c -4.132,0.196 -7.867,-2.399 -9.157,-6.33 -2.526,-7.694 -4.848,-18.843 -6.54,-28.463 -1.898,-10.788 -2.886,-26.999 -3.095,-41.736 H 7.096 c 1.128,30.731 5.039,48.9 6.774,58.954 0.699,4.051 -1.383,8.063 -5.094,9.831 z" /></g><g
           id="g416"><g
             id="g418" /><g
             id="g430"><g
               style="opacity:0.30000299"
               id="g428"
               clip-path="url(#clipPath422)"><g
                 id="g426"
                 transform="translate(172.5814,289.3267)"><path
                   id="path424"
                   style="fill:#000000;fill-opacity:1;fill-rule:nonzero;stroke:none"
                   d="M 0,0 C -1.91,-7.037 -3.626,-15.563 -4.956,-23.135 -6.071,-29.502 -6.878,-37.744 -7.39,-46.463 0.754,-45.66 9.754,-36.281 12.643,-23.649 15.45,-11.37 8.81,1.489 0,0" /></g></g></g></g><g
           transform="translate(200.6689,317.0918)"
           id="g432"><path
             id="path434"
             style="fill:#ce5b51;fill-opacity:1;fill-rule:nonzero;stroke:none"
             d="m 0,0 4.003,-6.11 5.448,-8.328 c -0.373,-0.195 -1.206,-1.501 -1.684,-2.465 -0.995,-2.005 -1.817,-3.506 2.393,-6.376 0.901,-0.615 1.469,-1.69 1.264,-2.762 -0.248,-1.3 -1.546,-2.564 -6.091,-1.762 -5.263,0.929 -8.786,3.711 -11.405,6.331 -1.514,1.514 -1.166,2.654 0.292,4.222 C -1.65,-12.808 -0.413,-5.718 0,0" /></g><g
           id="g436"><g
             id="g438" /><g
             id="g450"><g
               style="opacity:0.19999701"
               id="g448"
               clip-path="url(#clipPath442)"><g
                 id="g446"
                 transform="translate(208.7791,304.7017)"><path
                   id="path444"
                   style="fill:#000000;fill-opacity:1;fill-rule:nonzero;stroke:none"
                   d="M 0,0 -3.342,5.935 C -3.411,5.787 -3.49,5.616 -3.57,5.445 -3.831,4.809 -4.092,4.013 -4.286,3.172 -4.9,0.535 -2.854,-3.229 -0.603,-5.025 c 0.091,0.171 0.171,0.341 0.262,0.512 0.421,0.864 1.137,2 1.546,2.365 0.045,0.045 0.091,0.079 0.136,0.102 z" /></g></g></g></g><g
           transform="translate(207.2515,281.1831)"
           id="g452"><path
             id="path454"
             style="fill:#1a2e35;fill-opacity:1;fill-rule:nonzero;stroke:none"
             d="m 0,0 c -0.125,0 -0.24,0.083 -0.274,0.209 -0.041,0.152 0.048,0.308 0.199,0.35 0.21,0.056 0.449,0.108 0.712,0.166 3.622,0.789 12.105,2.637 11.332,35.177 -0.004,0.157 0.121,0.287 0.277,0.291 h 0.007 c 0.154,0 0.281,-0.123 0.285,-0.277 C 13.321,2.907 4.518,0.989 0.758,0.169 0.505,0.115 0.276,0.065 0.075,0.01 0.05,0.003 0.024,0 0,0" /></g><g
           transform="translate(227.5661,326.1543)"
           id="g456"><path
             id="path458"
             style="fill:#1a2e35;fill-opacity:1;fill-rule:nonzero;stroke:none"
             d="m 0,0 c -1.458,4.351 -6.7,1.453 -6.7,1.453 0,0 -0.063,-9.128 2.743,-11.463 C -1.151,-12.345 1.476,-4.404 0,0" /></g><g
           transform="translate(202.0797,327.9077)"
           id="g460"><path
             id="path462"
             style="fill:#ce5b51;fill-opacity:1;fill-rule:nonzero;stroke:none"
             d="m 0,0 c -1.608,-9.056 -3.004,-14.26 0.347,-20.071 5.042,-8.741 16.913,-7.694 21.164,0.61 3.825,7.474 5.812,21.028 -1.966,26.976 C 11.882,13.375 1.608,9.057 0,0" /></g><g
           transform="translate(200.3734,322.5835)"
           id="g464"><path
             id="path466"
             style="fill:#1a2e35;fill-opacity:1;fill-rule:nonzero;stroke:none"
             d="m 0,0 c -2.439,-3.887 3.646,-5.305 3.646,-5.305 0,0 7.289,5.494 7.44,9.142 C 11.236,7.484 1.932,3.079 0,0" /></g><g
           transform="translate(198.0307,321.124)"
           id="g468"><path
             id="path470"
             style="fill:#1a2e35;fill-opacity:1;fill-rule:nonzero;stroke:none"
             d="m 0,0 c -1.2,0.954 -2.519,4.807 -1.512,8.154 1.007,3.347 4.228,7.011 7.133,5.811 1.074,3.095 15.916,6.89 20.879,-0.026 5.778,-8.05 2.751,-12.194 -2.057,-9.069 l -8.807,2.842 z" /></g><g
           transform="translate(224.3679,326.752)"
           id="g472"><path
             id="path474"
             style="fill:#1a2e35;fill-opacity:1;fill-rule:nonzero;stroke:none"
             d="m 0,0 c -2.349,-2.786 -11.262,-2.147 -11.262,-2.147 l 2.925,3.193 c 0,0 -2.388,-2.12 -6.758,-1.867 -4.37,0.253 -2.021,4.737 -2.021,4.737 0,0 21.537,1.326 17.116,-3.916" /></g><g
           transform="translate(197.2016,321.3472)"
           id="g476"><path
             id="path478"
             style="fill:#ce5b51;fill-opacity:1;fill-rule:nonzero;stroke:none"
             d="m 0,0 c -0.098,-2.174 0.721,-4.2 1.827,-5.511 1.662,-1.973 4.225,-0.4 4.819,2.062 C 7.18,-1.233 6.488,2.188 4.311,3.249 2.167,4.292 0.112,2.486 0,0" /></g><g
           transform="translate(196.3314,327.1001)"
           id="g480"><path
             id="path482"
             style="fill:#007cff;fill-opacity:1;fill-rule:nonzero;stroke:none"
             d="m 0,0 c -0.616,2.612 0.505,6.402 2.353,8.475 -0.821,-0.189 -3.399,1.326 1.332,4.484 4.731,3.158 14.558,3.99 19.447,1.59 9.58,-4.702 6.926,-10.255 6.926,-10.255 z" /></g><g
           id="g484"><g
             id="g486" /><g
             id="g498"><g
               style="opacity:0.30000299"
               id="g496"
               clip-path="url(#clipPath490)"><g
                 id="g494"
                 transform="translate(196.3314,327.1001)"><path
                   id="path492"
                   style="fill:#000000;fill-opacity:1;fill-rule:nonzero;stroke:none"
                   d="m 0,0 c -0.616,2.612 0.505,6.402 2.353,8.475 -0.821,-0.189 -3.399,1.326 1.332,4.484 4.731,3.158 14.558,3.99 19.447,1.59 9.58,-4.702 6.926,-10.255 6.926,-10.255 z" /></g></g></g></g><g
           transform="translate(196.5187,321.396)"
           id="g500"><path
             id="path502"
             style="fill:#007cff;fill-opacity:1;fill-rule:nonzero;stroke:none"
             d="M 0,0 C 1.657,-0.053 3.269,4.956 17.337,7.484 23.025,8.506 28.974,6.68 30.63,5.044 32.286,3.409 31.514,8.793 30.912,10.72 30.311,12.646 21.526,14.193 15.807,13.506 5.901,12.318 -0.045,7.261 -0.865,5.996 -1.685,4.729 -1.515,0.048 0,0" /></g><g
           transform="translate(201.6958,319.9922)"
           id="g504"><path
             id="path506"
             style="fill:#1a2e35;fill-opacity:1;fill-rule:nonzero;stroke:none"
             d="m 0,0 c 0.329,-1.01 0.004,-2.021 -0.727,-2.259 -0.73,-0.238 -1.589,0.387 -1.918,1.397 -0.329,1.01 -0.003,2.022 0.727,2.259 C -1.188,1.636 -0.329,1.01 0,0" /></g><g
           transform="translate(202.875,225.4551)"
           id="g508"><path
             id="path510"
             style="fill:#1a2e35;fill-opacity:1;fill-rule:nonzero;stroke:none"
             d="m 0,0 c -1.713,0 -2.854,0.462 -3.488,1.413 -1.539,2.303 0.433,7.054 2.521,12.083 1.952,4.704 3.971,9.568 3.44,12.913 -1.011,6.365 -0.079,14.403 0.821,22.175 0.296,2.559 0.577,4.979 0.788,7.323 -3.865,3.977 -7.768,9.126 -5.716,19.689 1.356,6.974 1.054,12.794 -0.895,17.299 -0.063,0.144 0.004,0.311 0.148,0.373 0.143,0.064 0.311,-0.003 0.373,-0.148 1.996,-4.611 2.31,-10.544 0.932,-17.633 C -3.092,65.111 0.786,60.097 4.58,56.211 4.638,56.151 4.667,56.07 4.66,55.987 4.446,53.594 4.161,51.129 3.858,48.519 2.962,40.784 2.036,32.786 3.035,26.498 3.591,22.995 1.54,18.055 -0.442,13.278 -2.47,8.393 -4.385,3.779 -3.016,1.728 -2.495,0.948 -1.508,0.568 0,0.568 0.157,0.568 0.284,0.441 0.284,0.284 0.284,0.127 0.157,0 0,0" /></g><g
           transform="translate(215.8882,319.5273)"
           id="g512"><path
             id="path514"
             style="fill:#1a2e35;fill-opacity:1;fill-rule:nonzero;stroke:none"
             d="m 0,0 c -0.233,-0.709 -0.05,-1.419 0.407,-1.587 0.458,-0.168 1.017,0.27 1.25,0.979 0.232,0.709 0.05,1.42 -0.408,1.587 C 0.792,1.147 0.232,0.709 0,0" /></g><g
           transform="translate(223.7989,316.6245)"
           id="g516"><path
             id="path518"
             style="fill:#1a2e35;fill-opacity:1;fill-rule:nonzero;stroke:none"
             d="m 0,0 c -0.233,-0.709 -0.05,-1.419 0.407,-1.587 0.458,-0.168 1.017,0.27 1.25,0.979 0.232,0.709 0.05,1.42 -0.408,1.587 C 0.792,1.147 0.233,0.708 0,0" /></g><g
           transform="translate(221.0938,316.9995)"
           id="g520"><path
             id="path522"
             style="fill:#bb221f;fill-opacity:1;fill-rule:nonzero;stroke:none"
             d="m 0,0 c 0,0 -0.054,-3.984 0.735,-6.269 -1.419,-0.516 -2.984,0.705 -2.984,0.705 z" /></g><g
           transform="translate(216.8548,307.5454)"
           id="g524"><path
             id="path526"
             style="fill:#1a2e35;fill-opacity:1;fill-rule:nonzero;stroke:none"
             d="m 0,0 c -2.776,0.96 -3.729,3.228 -3.771,3.333 -0.046,0.111 0.008,0.239 0.12,0.285 0.112,0.046 0.239,-0.009 0.285,-0.12 C -3.355,3.472 -2.273,0.889 0.93,0.193 1.049,0.168 1.123,0.051 1.097,-0.067 1.072,-0.186 0.955,-0.26 0.836,-0.234 0.541,-0.17 0.262,-0.091 0,0" /></g><g
           transform="translate(215.1644,322.5908)"
           id="g528"><path
             id="path530"
             style="fill:#1a2e35;fill-opacity:1;fill-rule:nonzero;stroke:none"
             d="M 0,0 C -0.063,0.034 -0.119,0.083 -0.161,0.148 -0.291,0.352 -0.233,0.623 -0.029,0.753 1.984,2.047 3.828,1.194 3.905,1.157 4.12,1.079 4.216,0.792 4.112,0.574 4.008,0.355 3.747,0.263 3.529,0.366 3.453,0.401 2.026,1.033 0.444,0.017 0.305,-0.072 0.136,-0.073 0,0" /></g><g
           transform="translate(225.3671,321.2031)"
           id="g532"><path
             id="path534"
             style="fill:#1a2e35;fill-opacity:1;fill-rule:nonzero;stroke:none"
             d="M 0,0 C -0.008,0.071 0.001,0.145 0.031,0.217 0.123,0.439 0.38,0.546 0.603,0.453 2.813,-0.464 3.163,-2.465 3.176,-2.55 3.235,-2.771 3.054,-3.013 2.815,-3.052 2.576,-3.091 2.352,-2.93 2.312,-2.691 2.297,-2.608 2.003,-1.076 0.267,-0.356 0.115,-0.292 0.017,-0.153 0,0" /></g><g
           transform="translate(187.9507,287.2725)"
           id="g536"><path
             id="path538"
             style="fill:#ce5b51;fill-opacity:1;fill-rule:nonzero;stroke:none"
             d="m 0,0 c -0.831,-1.505 -1.738,-3.214 -2.604,-4.835 -0.867,-1.646 -1.711,-3.308 -2.524,-4.978 -1.653,-3.326 -3.203,-6.684 -4.611,-10.034 -1.379,-3.35 -2.636,-6.721 -3.463,-9.95 -0.404,-1.606 -0.713,-3.181 -0.84,-4.559 -0.171,-1.324 0.075,-2.77 -0.026,-2.454 0.058,-0.281 0.788,-1.211 1.897,-2.036 1.101,-0.847 2.519,-1.667 4.031,-2.411 3.042,-1.512 6.48,-2.78 9.989,-3.915 3.52,-1.133 7.148,-2.138 10.814,-3.064 3.647,-0.966 7.414,-1.779 11.06,-2.577 l -0.683,-6.905 c -8.008,0.153 -15.833,0.863 -23.793,2.44 -3.974,0.804 -7.959,1.805 -12.023,3.361 -2.029,0.803 -4.083,1.729 -6.186,3.052 -2.068,1.343 -4.352,3.023 -6.164,6.156 -0.43,0.804 -0.825,1.663 -1.095,2.625 -0.064,0.227 -0.144,0.504 -0.186,0.691 l -0.119,0.544 c -0.084,0.369 -0.13,0.71 -0.191,1.067 -0.211,1.4 -0.265,2.703 -0.25,3.948 0.031,2.488 0.354,4.746 0.782,6.914 0.861,4.325 2.122,8.295 3.564,12.143 1.43,3.847 3.061,7.547 4.806,11.17 0.885,1.805 1.796,3.591 2.736,5.364 0.943,1.797 1.887,3.486 2.993,5.328 z" /></g><g
           transform="translate(180.3851,300.834)"
           id="g540"><path
             id="path542"
             style="fill:#007cff;fill-opacity:1;fill-rule:nonzero;stroke:none"
             d="M 0,0 C 9.329,1.418 13.908,-6.58 9.521,-18.524 5.133,-30.467 1.006,-37.179 1.006,-37.179 l -20.094,8.816 C -15.488,-16.545 -9.553,-1.453 0,0" /></g><g
           transform="translate(212.4794,236.3394)"
           id="g544"><path
             id="path546"
             style="fill:#ce5b51;fill-opacity:1;fill-rule:nonzero;stroke:none"
             d="m 0,0 5.583,-1.915 -7.407,-7.07 c 0,0 -9.057,3.243 -7.203,7.18 l 2.276,1.296 C -4.799,0.603 -2.306,0.791 0,0" /></g><g
           transform="translate(224.6275,230.6694)"
           id="g548"><path
             id="path550"
             style="fill:#ce5b51;fill-opacity:1;fill-rule:nonzero;stroke:none"
             d="m 0,0 -8.37,-4.93 -5.603,1.615 7.408,7.07 z" /></g></g></g><path
       id="path552"
       style="fill:#007cff;fill-opacity:1;fill-rule:nonzero;stroke:none"
       d="m 148.666,218.561 h 207.622 v 6.759 H 148.666 Z" /><g
       id="g554"><g
         clip-path="url(#clipPath560)"
         id="g556"><g
           id="g562"><g
             id="g564" /><g
             id="g574"><g
               style="opacity:0.60000598"
               id="g572"
               clip-path="url(#clipPath568)"><path
                 id="path570"
                 style="fill:#ffffff;fill-opacity:1;fill-rule:nonzero;stroke:none"
                 d="m 148.666,218.561 h 207.622 v 6.759 H 148.666 Z" /></g></g></g><g
           id="g576"><g
             id="g578" /><g
             id="g588"><g
               style="opacity:0.5"
               id="g586"
               clip-path="url(#clipPath582)"><path
                 id="path584"
                 style="fill:#007cff;fill-opacity:1;fill-rule:nonzero;stroke:none"
                 d="m 148.666,218.561 h 41.426 v 6.759 h -41.426 z" /></g></g></g><g
           transform="translate(300.0634,227.564)"
           id="g590"><path
             id="path592"
             style="fill:#007cff;fill-opacity:1;fill-rule:nonzero;stroke:none"
             d="m 0,0 h -97.833 c -1.234,0 -2.244,-1.009 -2.244,-2.244 H 2.245 C 2.245,-1.009 1.235,0 0,0" /></g><g
           transform="translate(313.029,273.3335)"
           id="g594"><path
             id="path596"
             style="fill:#007cff;fill-opacity:1;fill-rule:nonzero;stroke:none"
             d="m 0,0 h -66.881 c -0.818,0 -1.658,-0.663 -1.876,-1.481 l -10.972,-41.243 c -0.218,-0.818 0.269,-1.481 1.087,-1.481 h 66.881 c 0.818,0 1.658,0.663 1.876,1.481 L 1.087,-1.481 C 1.305,-0.663 0.818,0 0,0" /></g><g
           id="g598"><g
             id="g600" /><g
             id="g612"><g
               style="opacity:0.19999701"
               id="g610"
               clip-path="url(#clipPath604)"><g
                 id="g608"
                 transform="translate(244.2721,271.8525)"><path
                   id="path606"
                   style="fill:#000000;fill-opacity:1;fill-rule:nonzero;stroke:none"
                   d="m 0,0 -10.973,-41.243 c -0.217,-0.818 0.27,-1.482 1.088,-1.482 L 1.876,1.481 C 1.057,1.481 0.218,0.818 0,0" /></g></g></g></g><g
           id="g614"><g
             id="g616" /><g
             id="g628"><g
               style="opacity:0.19999701"
               id="g626"
               clip-path="url(#clipPath620)"><g
                 id="g624"
                 transform="translate(230.7777,227.564)"><path
                   id="path622"
                   style="fill:#000000;fill-opacity:1;fill-rule:nonzero;stroke:none"
                   d="m 0,0 h -28.547 c -1.234,0 -2.244,-1.009 -2.244,-2.244 H 2.245 C 2.245,-1.009 1.235,0 0,0" /></g></g></g></g><g
           transform="translate(153.5343,118.6436)"
           id="g630"><path
             id="path632"
             style="fill:#007cff;fill-opacity:1;fill-rule:nonzero;stroke:none"
             d="M 0,0 15.845,87.243 31.69,0 Z m 38.025,-34.881 h 3.979 l -5.613,30.902 h 3.494 V 0 H 35.669 L 18.245,95.938 h 2.566 v 3.979 h -9.933 v -3.979 h 2.567 L -3.979,0 h -4.217 v -3.979 h 3.494 l -5.612,-30.902 h 3.979 l 5.612,30.902 h 33.135 z" /></g><g
           transform="translate(318.2162,118.6436)"
           id="g634"><path
             id="path636"
             style="fill:#007cff;fill-opacity:1;fill-rule:nonzero;stroke:none"
             d="M 0,0 15.845,87.243 31.69,0 Z m 38.025,-31.199 h 3.979 l -5.612,27.22 h 3.493 V 0 H 35.669 L 18.245,95.938 h 2.567 v 3.979 h -9.934 v -3.979 h 2.567 L -3.979,0 h -4.217 v -3.979 h 3.494 l -5.612,-27.22 h 3.979 l 5.612,27.22 h 33.136 z" /></g><g
           transform="translate(311.3999,226.8374)"
           id="g638"><path
             id="path640"
             style="fill:#1a2e35;fill-opacity:1;fill-rule:nonzero;stroke:none"
             d="m 0,0 v -0.791 c 0,-0.401 0.325,-0.727 0.726,-0.727 h 25.648 c 0.401,0 0.726,0.326 0.726,0.727 L 27.1,0 c 0,0.401 -0.325,0.727 -0.726,0.727 H 0.726 C 0.325,0.727 0,0.401 0,0" /></g></g></g><g
       id="g642"><g
         clip-path="url(#clipPath648)"
         id="g644"><g
           id="g650"><g
             id="g652" /><g
             id="g664"><g
               style="opacity:0.89999402"
               id="g662"
               clip-path="url(#clipPath656)"><g
                 id="g660"
                 transform="translate(266.6043,281.0576)"><path
                   id="path658"
                   style="fill:#1a2e35;fill-opacity:1;fill-rule:nonzero;stroke:none"
                   d="m 0,0 c -0.791,0 -1.375,0.641 -1.305,1.432 l 4.11,46.236 c 0.071,0.791 0.769,1.433 1.559,1.433 h 56.278 c 0.79,0 1.374,-0.642 1.304,-1.433 L 57.836,1.432 C 57.766,0.641 57.068,0 56.277,0 Z" /></g></g></g></g></g></g><g
       transform="translate(314.0852,315.7661)"
       id="g666"><path
         id="path668"
         style="fill:#ffffff;fill-opacity:1;fill-rule:nonzero;stroke:none"
         d="m 0,0 h -32.571 l 0.107,1.204 H 0.107 Z" /></g><g
       transform="translate(319.1913,313.8462)"
       id="g670"><path
         id="path672"
         style="fill:#007cff;fill-opacity:1;fill-rule:nonzero;stroke:none"
         d="m 0,0 h -34.504 l 0.107,1.204 H 0.107 Z" /></g><g
       transform="translate(313.1055,311.9263)"
       id="g674"><path
         id="path676"
         style="fill:#007cff;fill-opacity:1;fill-rule:nonzero;stroke:none"
         d="m 0,0 h -28.589 l 0.107,1.204 H 0.107 Z" /></g><g
       transform="translate(309.9547,310.0059)"
       id="g678"><path
         id="path680"
         style="fill:#007cff;fill-opacity:1;fill-rule:nonzero;stroke:none"
         d="m 0,0 h -25.609 l 0.107,1.204 H 0.107 Z" /></g><g
       transform="translate(301.8867,306.8823)"
       id="g682"><path
         id="path684"
         style="fill:#ffffff;fill-opacity:1;fill-rule:nonzero;stroke:none"
         d="m 0,0 h -21.162 l 0.107,1.204 H 0.107 Z" /></g><g
       transform="translate(306.3822,302.3267)"
       id="g686"><path
         id="path688"
         style="fill:#007cff;fill-opacity:1;fill-rule:nonzero;stroke:none"
         d="m 0,0 h -22.719 l -0.107,-1.204 h 22.719 z" /></g><g
       transform="translate(302.6581,304.2466)"
       id="g690"><path
         id="path692"
         style="fill:#007cff;fill-opacity:1;fill-rule:nonzero;stroke:none"
         d="m 0,0 h -18.824 l -0.107,-1.204 h 18.824 z" /></g><g
       transform="translate(304.7368,306.1665)"
       id="g694"><path
         id="path696"
         style="fill:#007cff;fill-opacity:1;fill-rule:nonzero;stroke:none"
         d="m 0,0 h -20.732 l -0.107,-1.204 h 20.732 z" /></g><g
       transform="translate(300.5851,292.2388)"
       id="g698"><path
         id="path700"
         style="fill:#ffffff;fill-opacity:1;fill-rule:nonzero;stroke:none"
         d="m 0,0 h -21.162 l 0.107,1.204 H 0.107 Z" /></g><g
       transform="translate(305.0806,287.6831)"
       id="g702"><path
         id="path704"
         style="fill:#007cff;fill-opacity:1;fill-rule:nonzero;stroke:none"
         d="m 0,0 h -22.719 l -0.107,-1.204 h 22.719 z" /></g><g
       transform="translate(301.3565,289.603)"
       id="g706"><path
         id="path708"
         style="fill:#007cff;fill-opacity:1;fill-rule:nonzero;stroke:none"
         d="m 0,0 h -18.824 l -0.107,-1.204 h 18.824 z" /></g><g
       transform="translate(303.4352,291.5229)"
       id="g710"><path
         id="path712"
         style="fill:#007cff;fill-opacity:1;fill-rule:nonzero;stroke:none"
         d="m 0,0 h -20.732 l -0.107,-1.204 h 20.732 z" /></g><g
       transform="translate(292.041,324.7227)"
       id="g714"><path
         id="path716"
         style="fill:#ffffff;fill-opacity:1;fill-rule:nonzero;stroke:none"
         d="m 0,0 h -17.183 l 0.107,1.204 H 0.107 Z" /></g><g
       transform="translate(295.6152,320.167)"
       id="g718"><path
         id="path720"
         style="fill:#ffffff;fill-opacity:1;fill-rule:nonzero;stroke:none"
         d="m 0,0 h -18.447 l -0.107,-1.204 h 18.447 z" /></g><g
       transform="translate(292.6234,322.0869)"
       id="g722"><path
         id="path724"
         style="fill:#ffffff;fill-opacity:1;fill-rule:nonzero;stroke:none"
         d="m 0,0 h -15.285 l -0.107,-1.204 h 15.285 z" /></g><g
       transform="translate(294.3433,324.0068)"
       id="g726"><path
         id="path728"
         style="fill:#ffffff;fill-opacity:1;fill-rule:nonzero;stroke:none"
         d="m 0,0 h -16.834 l -0.107,-1.204 h 16.834 z" /></g><g
       transform="translate(305.8703,296.5669)"
       id="g730"><path
         id="path732"
         style="fill:#007cff;fill-opacity:1;fill-rule:nonzero;stroke:none"
         d="m 0,0 h -22.719 l -0.107,-1.204 h 22.719 z" /></g><g
       transform="translate(302.1461,298.4868)"
       id="g734"><path
         id="path736"
         style="fill:#007cff;fill-opacity:1;fill-rule:nonzero;stroke:none"
         d="m 0,0 h -18.824 l -0.107,-1.204 h 18.824 z" /></g><g
       transform="translate(304.2248,300.4067)"
       id="g738"><path
         id="path740"
         style="fill:#007cff;fill-opacity:1;fill-rule:nonzero;stroke:none"
         d="m 0,0 h -20.732 l -0.107,-1.204 h 20.732 z" /></g><g
       id="g742"><g
         clip-path="url(#clipPath748)"
         id="g744"><g
           transform="translate(311.3955,372.3789)"
           id="g750"><path
             id="path752"
             style="fill:#007cff;fill-opacity:1;fill-rule:nonzero;stroke:none"
             d="M 0,0 C -0.877,0 -1.654,-0.714 -1.732,-1.592 L -4.55,-33.297 c -0.036,-0.407 0.086,-0.787 0.344,-1.069 0.257,-0.28 0.62,-0.434 1.023,-0.434 h 37.504 c 0.877,0 1.654,0.714 1.732,1.592 l 2.818,31.705 c 0.036,0.407 -0.086,0.786 -0.344,1.069 C 38.271,-0.154 37.907,0 37.503,0 Z M 34.321,-35.8 H -3.183 c -0.687,0 -1.312,0.269 -1.76,0.758 -0.45,0.492 -0.664,1.144 -0.603,1.834 l 2.818,31.705 C -2.606,-0.123 -1.381,1 0,1 h 37.503 c 0.688,0 1.313,-0.27 1.762,-0.759 0.449,-0.492 0.664,-1.143 0.602,-1.833 l -2.818,-31.705 c -0.122,-1.38 -1.346,-2.503 -2.728,-2.503" /></g><g
           transform="translate(350.1963,363.9321)"
           id="g754"><path
             id="path756"
             style="fill:#007cff;fill-opacity:1;fill-rule:nonzero;stroke:none"
             d="m 0,0 h -41.6 c -0.276,0 -0.5,0.224 -0.5,0.5 0,0.276 0.224,0.5 0.5,0.5 H 0 C 0.276,1 0.5,0.776 0.5,0.5 0.5,0.224 0.276,0 0,0" /></g><g
           transform="translate(315.9878,336.5786)"
           id="g758"><path
             id="path760"
             style="fill:#007cff;fill-opacity:1;fill-rule:nonzero;stroke:none"
             d="M 0,0 C -0.015,0 -0.03,0 -0.045,0.002 -0.32,0.026 -0.523,0.269 -0.498,0.544 L 1.933,27.898 C 1.958,28.173 2.2,28.373 2.476,28.352 2.75,28.327 2.954,28.084 2.929,27.809 L 0.498,0.456 C 0.475,0.196 0.256,0 0,0" /></g><g
           transform="translate(345.3213,360.6821)"
           id="g762"><path
             id="path764"
             style="fill:#007cff;fill-opacity:1;fill-rule:nonzero;stroke:none"
             d="m 0,0 h -22.585 c -0.276,0 -0.5,0.224 -0.5,0.5 0,0.276 0.224,0.5 0.5,0.5 H 0 C 0.276,1 0.5,0.776 0.5,0.5 0.5,0.224 0.276,0 0,0" /></g><g
           transform="translate(341.7832,356.6943)"
           id="g766"><path
             id="path768"
             style="fill:#007cff;fill-opacity:1;fill-rule:nonzero;stroke:none"
             d="m 0,0 h -19.401 c -0.277,0 -0.5,0.224 -0.5,0.5 0,0.276 0.223,0.5 0.5,0.5 H 0 C 0.276,1 0.5,0.776 0.5,0.5 0.5,0.224 0.276,0 0,0" /></g><g
           transform="translate(333.3081,352.5781)"
           id="g770"><path
             id="path772"
             style="fill:#007cff;fill-opacity:1;fill-rule:nonzero;stroke:none"
             d="m 0,0 h -11.292 c -0.277,0 -0.5,0.224 -0.5,0.5 0,0.276 0.223,0.5 0.5,0.5 H 0 C 0.276,1 0.5,0.776 0.5,0.5 0.5,0.224 0.276,0 0,0" /></g><g
           transform="translate(335.0874,344.5454)"
           id="g774"><path
             id="path776"
             style="fill:#007cff;fill-opacity:1;fill-rule:nonzero;stroke:none"
             d="m 0,0 h -13.786 c -0.276,0 -0.5,0.224 -0.5,0.5 0,0.276 0.224,0.5 0.5,0.5 H 0 C 0.276,1 0.5,0.776 0.5,0.5 0.5,0.224 0.276,0 0,0" /></g><g
           transform="translate(332.2285,340.4297)"
           id="g778"><path
             id="path780"
             style="fill:#007cff;fill-opacity:1;fill-rule:nonzero;stroke:none"
             d="m 0,0 h -11.293 c -0.276,0 -0.5,0.224 -0.5,0.5 0,0.276 0.224,0.5 0.5,0.5 H 0 C 0.276,1 0.5,0.776 0.5,0.5 0.5,0.224 0.276,0 0,0" /></g><g
           transform="translate(338.8394,340.4297)"
           id="g782"><path
             id="path784"
             style="fill:#007cff;fill-opacity:1;fill-rule:nonzero;stroke:none"
             d="m 0,0 h -3.619 c -0.276,0 -0.5,0.224 -0.5,0.5 0,0.276 0.224,0.5 0.5,0.5 H 0 C 0.276,1 0.5,0.776 0.5,0.5 0.5,0.224 0.276,0 0,0" /></g><g
           transform="translate(342.8091,348.5903)"
           id="g786"><path
             id="path788"
             style="fill:#007cff;fill-opacity:1;fill-rule:nonzero;stroke:none"
             d="m 0,0 h -21.148 c -0.276,0 -0.5,0.224 -0.5,0.5 0,0.276 0.224,0.5 0.5,0.5 H 0 C 0.276,1 0.5,0.776 0.5,0.5 0.5,0.224 0.276,0 0,0" /></g><g
           transform="translate(268.1372,339.6885)"
           id="g790"><path
             id="path792"
             style="fill:#1a2e35;fill-opacity:1;fill-rule:nonzero;stroke:none"
             d="m 0,0 c -0.128,0 -0.256,0.049 -0.354,0.146 -0.195,0.196 -0.195,0.512 0,0.708 l 2.495,2.494 -2.495,2.495 c -0.195,0.195 -0.195,0.511 0,0.707 0.196,0.195 0.512,0.195 0.707,0 L 3.202,3.702 C 3.397,3.506 3.397,3.19 3.202,2.995 L 0.353,0.146 C 0.256,0.049 0.128,0 0,0" /></g><g
           transform="translate(259.6025,339.6885)"
           id="g794"><path
             id="path796"
             style="fill:#1a2e35;fill-opacity:1;fill-rule:nonzero;stroke:none"
             d="m 0,0 c -0.128,0 -0.256,0.049 -0.354,0.146 l -2.848,2.849 c -0.195,0.195 -0.195,0.511 0,0.707 l 2.848,2.848 c 0.196,0.195 0.512,0.195 0.708,0 0.195,-0.196 0.195,-0.512 0,-0.707 L -2.141,3.348 0.354,0.854 C 0.549,0.658 0.549,0.342 0.354,0.146 0.256,0.049 0.128,0 0,0" /></g><g
           transform="translate(262.8032,339.6885)"
           id="g798"><path
             id="path800"
             style="fill:#1a2e35;fill-opacity:1;fill-rule:nonzero;stroke:none"
             d="m 0,0 c -0.059,0 -0.118,0.01 -0.175,0.032 -0.259,0.096 -0.39,0.385 -0.293,0.643 L 1.665,6.372 C 1.763,6.63 2.052,6.761 2.309,6.665 2.568,6.568 2.699,6.279 2.602,6.021 L 0.468,0.325 C 0.393,0.124 0.203,0 0,0" /></g><g
           transform="translate(331.9292,265.9048)"
           id="g802"><path
             id="path804"
             style="fill:#007cff;fill-opacity:1;fill-rule:nonzero;stroke:none"
             d="m 0,0 c -0.128,0 -0.256,0.049 -0.354,0.146 -0.195,0.196 -0.195,0.512 0,0.708 l 2.495,2.494 -2.495,2.494 c -0.195,0.196 -0.195,0.512 0,0.707 0.196,0.196 0.512,0.196 0.708,0 L 3.202,3.702 C 3.295,3.608 3.348,3.481 3.348,3.348 3.348,3.215 3.295,3.088 3.202,2.995 L 0.354,0.146 C 0.256,0.049 0.128,0 0,0" /></g><g
           transform="translate(323.3945,265.9048)"
           id="g806"><path
             id="path808"
             style="fill:#007cff;fill-opacity:1;fill-rule:nonzero;stroke:none"
             d="m 0,0 c -0.128,0 -0.256,0.049 -0.353,0.146 l -2.848,2.849 c -0.195,0.195 -0.195,0.511 0,0.707 l 2.848,2.847 c 0.195,0.196 0.511,0.196 0.707,0 0.195,-0.195 0.195,-0.511 0,-0.707 L -2.141,3.348 0.354,0.854 C 0.549,0.658 0.549,0.342 0.354,0.146 0.256,0.049 0.128,0 0,0" /></g><g
           transform="translate(326.5952,265.9048)"
           id="g810"><path
             id="path812"
             style="fill:#007cff;fill-opacity:1;fill-rule:nonzero;stroke:none"
             d="m 0,0 c -0.059,0 -0.118,0.01 -0.175,0.032 -0.259,0.096 -0.39,0.385 -0.293,0.643 L 1.665,6.371 C 1.763,6.629 2.052,6.76 2.309,6.664 2.568,6.567 2.699,6.279 2.602,6.021 L 0.468,0.325 C 0.393,0.124 0.203,0 0,0" /></g><g
           transform="translate(309.3481,379.2993)"
           id="g814"><path
             id="path816"
             style="fill:#007cff;fill-opacity:1;fill-rule:nonzero;stroke:none"
             d="m 0,0 c -0.128,0 -0.256,0.049 -0.353,0.146 -0.196,0.196 -0.196,0.512 0,0.708 l 2.494,2.494 -2.494,2.495 c -0.196,0.195 -0.196,0.511 0,0.707 0.195,0.195 0.511,0.195 0.707,0 L 3.201,3.702 C 3.397,3.506 3.397,3.19 3.201,2.995 L 0.354,0.146 C 0.256,0.049 0.128,0 0,0" /></g><g
           transform="translate(300.8135,379.2993)"
           id="g818"><path
             id="path820"
             style="fill:#007cff;fill-opacity:1;fill-rule:nonzero;stroke:none"
             d="m 0,0 c -0.128,0 -0.256,0.049 -0.353,0.146 l -2.849,2.849 c -0.195,0.195 -0.195,0.511 0,0.707 l 2.849,2.848 c 0.195,0.195 0.511,0.195 0.707,0 0.195,-0.196 0.195,-0.512 0,-0.707 L -2.141,3.348 0.354,0.854 C 0.549,0.658 0.549,0.342 0.354,0.146 0.256,0.049 0.128,0 0,0" /></g><g
           transform="translate(304.0137,379.2993)"
           id="g822"><path
             id="path824"
             style="fill:#007cff;fill-opacity:1;fill-rule:nonzero;stroke:none"
             d="m 0,0 c -0.059,0 -0.118,0.01 -0.175,0.032 -0.259,0.096 -0.39,0.385 -0.293,0.643 L 1.666,6.372 C 1.762,6.63 2.052,6.76 2.309,6.665 2.568,6.568 2.699,6.279 2.602,6.021 L 0.468,0.325 C 0.393,0.124 0.203,0 0,0" /></g></g></g></g></svg>